<svg width="120" height="120" viewBox="0 0 120 120" xmlns="http://www.w3.org/2000/svg"><title>Cologne JS</title><path fill="#F0DB4F" d="M0 0h120v120h-120z"/><g fill="#323330"><path d="M40.5 94.8c1.6 2.4 2.9 5.2 7.1 5.5 4.3.3 6.1-2.3 6.1-5.9v-39.4h11.2v40.3c0 10.9-8.2 14.9-16.1 14.9-7.9 0-14.4-4.3-17.3-9.9l9-5.5zM106.9 63.1s-3-8.7-15.9-8.7c-12.8 0-16.3 9.2-16.3 14.9 0 5.7 1.7 10.7 9 14.6 7.3 4 15.4 4.9 15.4 10.8s-6.1 5.7-7.7 5.7c-1.5 0-6.5 0-11.1-6.6l-9 5.4c4.5 6.9 9.4 11.1 20.8 11.1s18.2-6.4 18.2-16.1c0-9.8-7-13.9-14.2-16.9-7.3-3-10.7-4.6-10.7-8.2 0-3.7 3.5-5.2 5.9-5.2 2.4 0 5.1 1.5 7.2 4.8l8.4-5.6zM18.1 44.4l2.9 1c-.4 1.6-1.2 2.8-2.2 3.6-1.1.8-2.4 1.2-4 1.2-2 0-3.6-.7-4.9-2-1.3-1.4-2-3.3-2-5.6 0-2.5.7-4.5 2-5.9 1.3-1.3 3-2 5.1-2 1.8 0 3.3.5 4.5 1.6.6.6 1.2 1.6 1.5 2.8l-3 .7c-.2-.8-.6-1.4-1.1-1.9-.6-.4-1.3-.6-2.1-.6-1.1 0-2 .4-2.7 1.2-.7.8-1 2.1-1 3.8 0 1.9.3 3.3 1 4.1.7.8 1.6 1.2 2.7 1.2.8 0 1.5-.2 2-.8.6-.5 1-1.3 1.3-2.4zm4.7-1.9c0-1.5.2-2.8.7-3.8.3-.8.8-1.5 1.4-2.1.6-.6 1.2-1 1.9-1.3 1-.4 2.1-.6 3.3-.6 2.2 0 4 .6 5.3 2 1.3 1.4 2 3.3 2 5.8 0 2.4-.7 4.3-2 5.7-1.3 1.3-3.1 2-5.3 2-2.2 0-4-.7-5.3-2-1.3-1.4-2-3.3-2-5.7zm3.1-.1c0 1.7.4 3 1.2 3.9.8.9 1.8 1.3 3 1.3s2.2-.4 3-1.3c.8-.9 1.2-2.2 1.2-3.9 0-1.7-.4-3-1.2-3.9-.7-.8-1.7-1.2-3-1.2-1.2 0-2.2.4-3 1.2-.8.9-1.2 2.2-1.2 3.9zm13.7 7.6v-15h3.1v12.4h7.5v2.6h-10.6zm12-7.5c0-1.5.2-2.8.6-3.8.4-.8.9-1.5 1.4-2.1.6-.6 1.3-1 2-1.3.9-.4 2-.6 3.2-.6 2.2 0 4 .6 5.3 2 1.4 1.4 2 3.3 2 5.8 0 2.4-.6 4.3-1.9 5.7-1.4 1.3-3.1 2-5.3 2-2.3 0-4-.7-5.4-2-1.3-1.4-1.9-3.3-1.9-5.7zm3.1-.1c0 1.7.4 3 1.2 3.9.8.9 1.8 1.3 3 1.3s2.2-.4 2.9-1.3c.8-.9 1.2-2.2 1.2-3.9 0-1.7-.4-3-1.1-3.9-.8-.8-1.8-1.2-3-1.2-1.3 0-2.3.4-3.1 1.2-.7.9-1.1 2.2-1.1 3.9zm20.6 2v-2.5h6.5v6c-.6.6-1.5 1.1-2.7 1.6-1.2.5-2.5.7-3.7.7-1.6 0-2.9-.3-4.1-1-1.2-.6-2.1-1.6-2.6-2.8-.6-1.2-.9-2.6-.9-4 0-1.6.3-3 1-4.2.6-1.2 1.6-2.1 2.8-2.8 1-.5 2.2-.7 3.6-.7 1.9 0 3.4.4 4.4 1.1 1.1.8 1.7 1.9 2 3.3l-3 .5c-.2-.7-.6-1.3-1.2-1.7-.6-.4-1.3-.6-2.2-.6-1.3 0-2.3.4-3.1 1.2-.8.9-1.2 2.1-1.2 3.8 0 1.7.4 3.1 1.2 4 .8.9 1.8 1.3 3.1 1.3.6 0 1.3-.1 1.9-.4.7-.2 1.2-.5 1.7-.9v-1.9h-3.5zm9.2 5.6v-15.1h2.9l6.2 10.1v-10.1h2.8v15.1h-3.1l-6-9.9v9.9h-2.8zm14.9 0v-15.1h11.1v2.6h-8.1v3.3h7.6v2.5h-7.6v4.1h8.4v2.6h-11.4z"/></g></svg>