<?xml version="1.0" encoding="UTF-8"?>
<svg width="120px" height="120px" viewBox="0 0 120 120" version="1.1" xmlns="http://www.w3.org/2000/svg" xmlns:xlink="http://www.w3.org/1999/xlink">
  <title>Cologne JS</title>
  <g stroke="none">
    <rect fill="#F0DB4F" x="0" y="0" width="120" height="120" />
    <g fill="#323330">
      <path d="M40.5,94.8 C42.1,97.2 43.4,100 47.6,100.3 C51.9,100.6 53.7,98 53.7,94.4 C53.7,85.4 53.7,55 53.7,55 L64.9,55 C64.9,55 64.9,84.3 64.9,95.3 C64.9,106.2 56.7,110.2 48.8,110.2 C40.9,110.2 34.4,105.9 31.5,100.3 L40.5,94.8 Z"/>
      <path d="M106.9,63.1 C106.9,63.1 103.9,54.4 91,54.4 C78.2,54.4 74.7,63.6 74.7,69.3 C74.7,75 76.4,80 83.7,83.9 C91,87.9 99.1,88.8 99.1,94.7 C99.1,100.6 93,100.4 91.4,100.4 C89.9,100.4 84.9,100.4 80.3,93.8 L71.3,99.2 C75.8,106.1 80.7,110.3 92.1,110.3 C103.5,110.3 110.3,103.9 110.3,94.2 C110.3,84.4 103.3,80.3 96.1,77.3 C88.8,74.3 85.4,72.7 85.4,69.1 C85.4,65.4 88.9,63.9 91.3,63.9 C93.7,63.9 96.4,65.4 98.5,68.7 L106.9,63.1 Z"/>
      <path d="M18.1,44.4 L21,45.4 C20.6,47 19.8,48.2 18.8,49 C17.7,49.8 16.4,50.2 14.8,50.2 C12.8,50.2 11.2,49.5 9.9,48.2 C8.6,46.8 7.9,44.9 7.9,42.6 C7.9,40.1 8.6,38.1 9.9,36.7 C11.2,35.4 12.9,34.7 15,34.7 C16.8,34.7 18.3,35.2 19.5,36.3 C20.1,36.9 20.7,37.9 21,39.1 L18,39.8 C17.8,39 17.4,38.4 16.9,37.9 C16.3,37.5 15.6,37.3 14.8,37.3 C13.7,37.3 12.8,37.7 12.1,38.5 C11.4,39.3 11.1,40.6 11.1,42.3 C11.1,44.2 11.4,45.6 12.1,46.4 C12.8,47.2 13.7,47.6 14.8,47.6 C15.6,47.6 16.3,47.4 16.8,46.8 C17.4,46.3 17.8,45.5 18.1,44.4 Z M22.8,42.5 C22.8,41 23,39.7 23.5,38.7 C23.8,37.9 24.3,37.2 24.9,36.6 C25.5,36 26.1,35.6 26.8,35.3 C27.8,34.9 28.9,34.7 30.1,34.7 C32.3,34.7 34.1,35.3 35.4,36.7 C36.7,38.1 37.4,40 37.4,42.5 C37.4,44.9 36.7,46.8 35.4,48.2 C34.1,49.5 32.3,50.2 30.1,50.2 C27.9,50.2 26.1,49.5 24.8,48.2 C23.5,46.8 22.8,44.9 22.8,42.5 Z M25.9,42.4 C25.9,44.1 26.3,45.4 27.1,46.3 C27.9,47.2 28.9,47.6 30.1,47.6 C31.3,47.6 32.3,47.2 33.1,46.3 C33.9,45.4 34.3,44.1 34.3,42.4 C34.3,40.7 33.9,39.4 33.1,38.5 C32.4,37.7 31.4,37.3 30.1,37.3 C28.9,37.3 27.9,37.7 27.1,38.5 C26.3,39.4 25.9,40.7 25.9,42.4 Z M39.6,50 L39.6,35 L42.7,35 L42.7,47.4 L50.2,47.4 L50.2,50 L39.6,50 Z M51.6,42.5 C51.6,41 51.8,39.7 52.2,38.7 C52.6,37.9 53.1,37.2 53.6,36.6 C54.2,36 54.9,35.6 55.6,35.3 C56.5,34.9 57.6,34.7 58.8,34.7 C61,34.7 62.8,35.3 64.1,36.7 C65.5,38.1 66.1,40 66.1,42.5 C66.1,44.9 65.5,46.8 64.2,48.2 C62.8,49.5 61.1,50.2 58.9,50.2 C56.6,50.2 54.9,49.5 53.5,48.2 C52.2,46.8 51.6,44.9 51.6,42.5 Z M54.7,42.4 C54.7,44.1 55.1,45.4 55.9,46.3 C56.7,47.2 57.7,47.6 58.9,47.6 C60.1,47.6 61.1,47.2 61.8,46.3 C62.6,45.4 63,44.1 63,42.4 C63,40.7 62.6,39.4 61.9,38.5 C61.1,37.7 60.1,37.3 58.9,37.3 C57.6,37.3 56.6,37.7 55.8,38.5 C55.1,39.4 54.7,40.7 54.7,42.4 Z M75.3,44.4 L75.3,41.9 L81.8,41.9 L81.8,47.9 C81.2,48.5 80.3,49 79.1,49.5 C77.9,50 76.6,50.2 75.4,50.2 C73.8,50.2 72.5,49.9 71.3,49.2 C70.1,48.6 69.2,47.6 68.7,46.4 C68.1,45.2 67.8,43.8 67.8,42.4 C67.8,40.8 68.1,39.4 68.8,38.2 C69.4,37 70.4,36.1 71.6,35.4 C72.6,34.9 73.8,34.7 75.2,34.7 C77.1,34.7 78.6,35.1 79.6,35.8 C80.7,36.6 81.3,37.7 81.6,39.1 L78.6,39.6 C78.4,38.9 78,38.3 77.4,37.9 C76.8,37.5 76.1,37.3 75.2,37.3 C73.9,37.3 72.9,37.7 72.1,38.5 C71.3,39.4 70.9,40.6 70.9,42.3 C70.9,44 71.3,45.4 72.1,46.3 C72.9,47.2 73.9,47.6 75.2,47.6 C75.8,47.6 76.5,47.5 77.1,47.2 C77.8,47 78.3,46.7 78.8,46.3 L78.8,44.4 L75.3,44.4 Z M84.5,50 L84.5,34.9 L87.4,34.9 L93.6,45 L93.6,34.9 L96.4,34.9 L96.4,50 L93.3,50 L87.3,40.1 L87.3,50 L84.5,50 Z M99.4,50 L99.4,34.9 L110.5,34.9 L110.5,37.5 L102.4,37.5 L102.4,40.8 L110,40.8 L110,43.3 L102.4,43.3 L102.4,47.4 L110.8,47.4 L110.8,50 L99.4,50 Z"/>
    </g>
  </g>
</svg>
